<!DOCTYPE svg PUBLIC "-//W3C//DTD SVG 20010904//EN" "http://www.w3.org/TR/2001/REC-SVG-20010904/DTD/svg10.dtd">
<svg version="1.0" xmlns="http://www.w3.org/2000/svg" width="461px" height="541px" viewBox="0 0 4610 5410" preserveAspectRatio="xMidYMid meet">
<g id="layer101" fill="#050505" stroke="none">
 <path d="M2258 5400 c-1 -5 -30 -14 -63 -20 -33 -6 -100 -19 -150 -30 -49 -11 -121 -26 -160 -34 -152 -33 -301 -53 -525 -71 -41 -3 -151 -15 -245 -25 -93 -11 -267 -29 -385 -41 -118 -11 -231 -25 -250 -31 -19 -5 -64 -18 -100 -29 -89 -25 -92 -25 -79 9 13 33 3 123 -16 148 -25 34 -40 2 -44 -97 -4 -106 -8 -111 -115 -133 -70 -15 -96 -29 -96 -53 0 -22 35 -29 118 -22 42 4 80 4 84 0 4 -4 8 -402 8 -886 1 -719 -2 -898 -14 -980 -8 -55 -17 -161 -21 -235 -3 -74 -11 -166 -16 -205 -6 -38 -16 -167 -24 -285 -7 -118 -22 -305 -33 -415 -40 -394 -54 -641 -53 -920 1 -194 5 -297 15 -348 8 -40 20 -103 26 -142 7 -38 19 -86 28 -105 8 -19 29 -75 46 -124 20 -56 39 -94 53 -103 20 -14 23 -13 37 16 21 40 20 66 -5 100 -12 16 -19 37 -17 47 3 16 11 19 58 16 30 -2 80 -9 110 -17 30 -7 89 -16 130 -20 41 -4 86 -12 100 -19 14 -7 59 -16 100 -19 41 -3 102 -12 135 -21 33 -8 134 -29 225 -46 214 -41 255 -50 313 -67 26 -8 84 -21 130 -28 45 -7 96 -18 112 -23 17 -6 68 -18 115 -28 180 -34 217 -42 280 -60 84 -24 353 -25 620 -1 102 9 244 19 315 22 72 3 236 13 365 20 129 8 343 17 475 19 132 3 272 10 310 16 39 6 105 13 148 15 83 3 110 15 105 49 -3 20 -10 21 -143 24 -156 3 -173 5 -156 26 16 20 51 134 51 170 0 17 9 63 20 101 11 38 20 83 20 100 0 16 7 53 16 80 8 28 22 84 30 125 15 78 36 177 74 340 44 188 50 226 50 295 0 38 4 111 10 160 5 50 14 223 20 385 6 162 16 331 21 375 16 136 21 394 10 500 -6 55 -18 237 -25 405 -8 168 -20 379 -25 470 -6 91 -16 302 -22 470 -6 168 -13 319 -15 335 -2 17 -9 165 -14 329 -6 165 -15 305 -20 311 -46 56 163 15 225 -44 16 -16 40 -32 53 -36 21 -6 22 -4 22 60 0 53 -3 66 -14 62 -8 -3 -42 8 -77 24 -36 17 -92 34 -130 38 -36 5 -75 13 -85 19 -10 5 -82 13 -159 17 -77 4 -160 11 -185 16 -25 6 -105 16 -179 23 -73 8 -138 19 -144 25 -15 15 -1374 16 -1379 1z m1132 -110 c107 -6 254 -15 325 -21 72 -5 215 -16 318 -24 197 -16 234 -25 220 -53 -4 -9 -7 -44 -6 -77 1 -33 6 -208 11 -390 35 -1168 43 -2090 25 -2615 -7 -190 -13 -430 -14 -535 -1 -115 -7 -208 -15 -235 -7 -25 -20 -97 -29 -160 -9 -63 -23 -135 -31 -159 -8 -25 -14 -63 -14 -86 0 -22 -7 -65 -15 -95 -9 -30 -20 -89 -26 -130 -5 -41 -16 -95 -23 -120 -8 -25 -17 -73 -21 -107 -3 -35 -15 -89 -26 -120 -13 -39 -18 -71 -14 -96 5 -32 2 -39 -17 -46 -33 -14 -405 -30 -913 -41 -667 -15 -946 -13 -1030 5 -39 9 -99 21 -135 26 -36 6 -98 19 -137 30 -40 10 -90 19 -110 19 -21 0 -74 9 -118 20 -44 11 -89 20 -100 20 -11 0 -60 9 -110 19 -160 36 -310 61 -414 71 -57 5 -119 14 -139 19 -21 6 -91 15 -157 20 -66 6 -144 17 -174 25 -29 8 -100 18 -157 22 l-104 7 -9 36 c-5 20 -21 99 -35 176 -26 139 -26 142 -16 400 13 353 28 577 50 785 11 96 22 207 25 245 4 39 10 88 15 110 5 22 14 101 20 175 6 74 17 176 25 225 32 198 35 331 24 1200 -11 946 -14 1088 -30 1116 -22 41 1 54 143 78 218 38 230 40 293 40 33 1 102 10 154 21 52 11 122 20 155 20 34 0 86 6 116 14 30 8 125 19 211 25 86 6 169 15 184 21 14 5 44 10 65 10 43 0 294 31 370 45 40 7 489 44 690 56 102 6 217 14 255 19 73 9 120 8 445 -10z"/>
 <path d="M2403 4893 c-35 -14 -91 -219 -94 -348 -2 -70 4 -85 32 -85 31 0 56 34 63 86 7 50 18 89 55 204 29 90 28 128 -5 140 -27 11 -32 11 -51 3z"/>
 <path d="M3464 4870 c-29 -12 -64 -63 -64 -94 0 -35 34 -42 83 -17 36 18 41 18 83 4 25 -8 61 -30 81 -49 42 -40 37 -52 -35 -79 -71 -27 -154 -73 -185 -103 -23 -22 -29 -24 -37 -12 -5 8 -10 30 -10 48 0 47 -61 162 -109 205 -75 68 -124 62 -183 -23 l-38 -55 0 -123 c0 -105 2 -124 17 -129 11 -4 26 5 48 28 27 30 33 45 38 103 9 97 20 106 69 59 42 -41 78 -123 78 -179 0 -39 17 -51 49 -35 15 8 22 8 28 -2 4 -6 28 -25 53 -41 60 -40 129 -36 130 7 0 4 -11 17 -25 29 -14 12 -25 27 -25 33 0 17 116 71 181 84 75 16 95 32 115 95 17 54 17 54 -8 98 -36 60 -74 91 -156 127 -71 31 -135 39 -178 21z"/>
 <path d="M1120 4813 c-43 -46 -71 -90 -131 -213 -42 -85 -82 -172 -88 -192 -7 -20 -19 -42 -27 -48 -22 -19 -18 -87 5 -100 16 -8 23 -6 35 12 9 12 16 28 16 36 0 7 8 25 19 40 28 41 52 82 79 132 13 25 43 69 65 98 23 29 51 70 62 90 30 54 54 49 75 -15 9 -28 24 -63 33 -76 9 -14 33 -65 53 -114 20 -48 44 -99 54 -113 10 -14 53 -93 95 -175 89 -174 92 -177 119 -173 40 6 34 33 -50 215 -13 28 -24 57 -24 62 0 6 -18 53 -39 104 -22 50 -53 139 -69 197 -56 198 -83 248 -149 276 -55 24 -73 18 -133 -43z"/>
 <path d="M2590 4814 c-52 -23 -79 -52 -95 -108 -23 -78 -19 -133 14 -191 48 -83 86 -117 124 -113 46 4 49 45 8 103 -25 35 -31 53 -31 97 0 94 48 141 111 107 39 -20 77 11 63 53 -7 23 -94 68 -131 68 -15 -1 -44 -8 -63 -16z"/>
 <path d="M2886 4808 c-43 -129 -67 -309 -47 -347 21 -38 43 -21 68 54 35 100 44 156 41 233 -3 65 -4 67 -31 70 -16 2 -29 -2 -31 -10z"/>
 <path d="M1645 4780 c-16 -10 -46 -36 -67 -56 -35 -36 -36 -40 -43 -135 -7 -100 1 -139 30 -139 17 0 53 60 90 150 15 36 38 78 51 93 37 44 28 108 -15 106 -9 0 -29 -9 -46 -19z"/>
 <path d="M1866 4713 c-24 -36 -74 -239 -62 -251 3 -2 17 3 30 12 14 9 34 16 45 16 19 0 23 -6 35 -62 9 -38 61 -54 110 -34 55 23 139 132 177 228 22 57 17 78 -21 78 -31 0 -77 -45 -109 -108 -11 -21 -27 -44 -35 -51 -14 -12 -16 -9 -16 27 0 54 -36 148 -63 167 -36 25 -64 19 -91 -22z"/>
 <path d="M1102 3683 c-58 -28 -82 -67 -82 -131 0 -40 6 -67 21 -91 24 -39 20 -61 -16 -115 -33 -48 -36 -140 -5 -179 29 -37 25 -49 -28 -79 -61 -35 -154 -130 -187 -193 -30 -56 -28 -92 6 -150 l21 -35 -26 -52 c-14 -29 -30 -82 -35 -118 -14 -98 -12 -325 4 -405 7 -38 16 -88 20 -110 12 -70 29 -90 92 -112 40 -14 87 -21 153 -22 52 -1 98 -5 103 -10 5 -5 4 -18 -3 -31 -6 -12 -14 -55 -17 -96 -4 -43 -11 -74 -17 -75 -31 -3 -59 8 -147 57 -118 67 -153 71 -175 19 -30 -72 -12 -219 29 -234 77 -30 228 -71 259 -71 48 0 68 -8 68 -29 0 -50 82 -217 154 -314 57 -77 225 -246 265 -267 13 -6 43 -27 66 -44 44 -34 204 -115 267 -135 44 -14 56 -28 31 -34 -36 -10 -229 -6 -273 5 -58 14 -78 32 -91 80 -13 51 -36 59 -66 24 -33 -39 -29 -60 24 -117 56 -60 77 -72 160 -89 96 -20 434 1 518 31 17 6 99 13 182 15 239 5 365 47 571 186 39 28 72 54 72 60 0 6 15 25 33 42 70 66 150 237 198 421 20 77 23 117 24 280 2 204 9 239 50 255 21 8 25 16 25 48 0 31 7 45 36 73 49 47 101 135 115 195 6 27 14 105 18 174 l6 125 25 -48 c17 -33 32 -49 50 -53 14 -3 40 -12 58 -20 42 -18 51 -18 106 5 62 27 106 89 106 148 0 48 -29 125 -71 188 -15 22 -30 50 -33 62 -4 12 -32 45 -63 73 l-55 51 40 37 c23 21 46 51 52 66 13 34 3 144 -15 166 -25 31 -25 40 5 73 40 46 60 96 60 152 0 67 -20 97 -87 130 -54 28 -65 30 -165 29 -93 -2 -111 -5 -147 -26 -22 -13 -54 -44 -72 -67 -40 -55 -49 -119 -48 -319 0 -85 -2 -156 -5 -159 -3 -3 -19 0 -36 7 -33 14 -251 8 -425 -10 -49 -6 -146 -14 -214 -20 -118 -9 -126 -11 -185 -48 -48 -30 -70 -52 -104 -107 l-42 -69 0 -116 c0 -63 -5 -214 -10 -335 -9 -197 -9 -224 6 -257 15 -33 22 -38 68 -47 64 -12 209 -30 300 -36 38 -3 87 -10 110 -16 118 -31 337 -43 429 -25 44 10 46 0 22 -80 -18 -61 -18 -102 0 -134 17 -30 19 -83 5 -142 -5 -24 -16 -86 -24 -138 -30 -200 -75 -321 -145 -396 l-39 -41 -228 8 c-497 16 -565 20 -732 36 -123 12 -179 14 -190 6 -22 -13 -43 -56 -33 -66 14 -14 125 -27 241 -27 63 0 144 -7 180 -15 36 -7 126 -19 200 -25 74 -7 146 -14 160 -17 l25 -5 -25 -13 c-14 -7 -52 -18 -85 -25 -32 -7 -73 -18 -90 -25 -55 -24 -192 -65 -214 -65 -12 0 -35 7 -52 15 -16 9 -55 20 -87 26 -31 6 -66 16 -77 23 -11 7 -47 23 -80 35 -33 12 -85 37 -115 55 -30 18 -62 35 -70 38 -20 7 -126 87 -174 132 -68 62 -175 209 -222 306 -40 81 -47 104 -48 159 l-1 64 50 35 c29 21 77 42 117 53 103 26 146 61 118 94 -8 10 -30 15 -62 15 -27 0 -65 7 -85 15 -41 17 -89 20 -98 5 -3 -5 -16 -10 -27 -10 -19 0 -20 4 -14 46 3 26 6 57 6 70 l0 24 168 0 c232 0 327 19 422 83 76 51 139 167 166 304 35 182 10 315 -85 442 -25 33 -25 34 -4 27 12 -4 31 -3 41 3 23 12 152 140 169 167 12 18 13 18 40 -12 15 -17 36 -45 45 -62 13 -25 24 -32 46 -32 52 0 56 46 11 125 -39 69 -81 105 -122 105 -37 0 -50 -8 -175 -110 -91 -73 -110 -99 -99 -141 4 -16 -3 -12 -35 16 -22 20 -61 45 -86 56 -26 10 -55 24 -66 30 -39 23 -169 59 -212 59 -51 0 -63 15 -41 52 8 13 29 61 48 107 27 68 47 99 102 158 38 40 88 86 110 103 81 57 175 109 213 119 22 5 53 14 69 19 116 40 575 30 681 -14 18 -8 46 -14 62 -14 36 0 142 -55 186 -98 40 -38 81 -108 91 -154 10 -50 45 -118 61 -118 22 0 27 45 10 103 -9 30 -16 71 -16 90 0 53 -70 134 -166 191 -42 25 -84 46 -93 46 -9 0 -34 9 -56 20 -21 11 -62 23 -89 26 -28 3 -76 13 -106 22 -44 13 -101 16 -275 16 -254 0 -315 -12 -470 -85 -134 -64 -214 -119 -295 -206 -70 -75 -73 -77 -65 -43 4 19 8 76 9 125 1 82 -1 93 -26 130 -27 40 -104 104 -143 119 -11 4 -45 14 -75 22 -30 8 -62 17 -70 19 -8 2 -30 -3 -48 -12z m136 -117 c35 -15 66 -38 91 -68 l38 -46 -4 -81 c-6 -120 -19 -144 -28 -51 -9 98 -33 151 -84 188 -44 32 -68 32 -97 1 -29 -32 -44 -24 -44 25 0 63 36 72 128 32z m-27 -191 c0 -5 -9 -11 -21 -13 -20 -3 -27 8 -13 22 10 9 34 3 34 -9z m2473 -26 l30 -28 -19 -36 c-24 -43 -41 -45 -49 -5 -6 35 -36 50 -97 50 -63 0 -92 -21 -122 -88 -15 -33 -27 -68 -28 -78 0 -11 -6 -35 -13 -54 -12 -33 -13 -34 -20 -12 -8 25 10 196 23 221 31 56 81 72 201 64 55 -4 70 -10 94 -34z m-2513 -35 c10 16 14 17 23 5 6 -8 18 -14 26 -14 9 0 15 -9 15 -25 0 -17 -6 -25 -17 -25 -9 0 -20 -4 -24 -8 -4 -4 -16 -7 -26 -7 -13 0 -18 -7 -18 -26 0 -34 -30 -29 -48 9 -10 21 -11 35 -2 62 13 39 30 48 48 26 11 -14 13 -14 23 3z m2397 -140 c2 -14 -6 -24 -23 -32 -23 -11 -25 -10 -25 11 0 44 42 62 48 21z m-2326 -64 c6 -40 -5 -58 -26 -41 -19 16 -21 42 -4 59 19 19 25 15 30 -18z m2259 -64 l-21 -20 0 25 c0 13 8 36 18 49 l17 25 3 -29 c2 -19 -3 -36 -17 -50z m123 28 c19 -18 22 -94 4 -112 -7 -7 -25 -12 -40 -12 -38 0 -48 26 -18 47 18 13 21 22 17 48 -8 47 8 59 37 29z m-2486 -91 c13 -26 4 -43 -24 -43 -36 0 -144 -59 -181 -99 -24 -26 -35 -33 -44 -24 -24 24 27 80 135 145 67 42 100 47 114 21z m2337 -57 c13 -19 14 -29 5 -45 -12 -24 -40 -28 -40 -7 0 20 12 76 16 76 2 0 11 -11 19 -24z m-1974 -106 c41 -7 79 -16 84 -20 6 -4 28 -13 51 -19 64 -17 158 -84 202 -143 56 -76 86 -173 79 -257 -7 -81 -40 -214 -61 -246 -24 -37 -77 -84 -121 -108 -37 -20 -54 -21 -255 -21 -248 1 -542 12 -551 22 -4 4 -9 36 -12 72 -3 36 -13 119 -22 185 -20 140 -16 232 12 295 11 25 23 56 26 70 15 62 136 160 199 160 13 0 42 6 65 13 51 15 203 14 304 -3z m1781 -37 c38 -21 51 -35 71 -82 22 -48 27 -80 36 -221 19 -317 -10 -407 -159 -486 -30 -16 -56 -19 -170 -18 -74 1 -171 7 -215 14 -44 6 -107 13 -140 15 -33 2 -85 5 -115 8 -30 3 -90 9 -133 13 -62 5 -80 10 -88 26 -15 27 -2 497 16 565 23 93 92 153 175 153 25 0 61 4 80 9 47 13 142 22 330 31 196 10 253 5 312 -27z m328 -65 c29 -24 67 -65 86 -93 18 -27 40 -59 48 -70 8 -11 17 -39 21 -62 8 -52 -17 -83 -69 -83 -48 0 -74 26 -83 84 -5 27 -14 51 -20 53 -7 3 -26 -17 -43 -43 l-30 -48 0 76 c0 45 -6 90 -15 111 -8 20 -15 41 -15 46 0 12 49 71 60 71 4 0 31 -19 60 -42z"/>
 <path d="M1675 2646 c-29 -43 5 -135 55 -151 10 -3 33 1 50 10 23 12 30 22 30 46 0 89 -95 156 -135 95z"/>
 <path d="M3213 2658 c-30 -33 -43 -63 -43 -95 0 -39 17 -53 61 -53 30 0 43 7 68 35 34 40 40 78 15 113 -21 30 -73 30 -101 0z"/>
 <path d="M3033 1794 c-7 -3 -34 -38 -60 -77 -69 -105 -114 -157 -137 -157 -11 0 -34 13 -51 29 -41 39 -205 121 -255 128 -25 4 -56 0 -83 -10 -23 -9 -59 -19 -80 -23 -29 -5 -41 -13 -49 -33 -23 -60 43 -181 99 -181 13 0 37 7 54 15 16 9 64 18 107 21 l77 6 84 -52 c117 -71 128 -72 187 -19 35 33 59 68 91 139 25 52 54 114 65 137 11 24 18 51 16 60 -3 18 -40 27 -65 17z"/>
 </g>
<g id="layer102" fill="#494647" stroke="none">
 <path d="M2687 5396 c-7 -19 94 -26 366 -26 l221 0 -22 20 c-20 19 -35 20 -291 20 -217 0 -270 -3 -274 -14z"/>
 <path d="M4173 5317 c-63 -21 -37 -30 122 -41 l70 -5 -42 19 c-24 11 -43 24 -43 30 0 13 -64 11 -107 -3z"/>
 <path d="M253 5278 c-4 -7 -10 -53 -13 -103 l-5 -90 -37 -18 c-20 -10 -60 -22 -88 -26 -57 -9 -86 -31 -76 -56 5 -15 20 -16 104 -13 l97 3 6 -65 c6 -67 17 -110 28 -110 3 0 7 -44 9 -98 1 -53 7 -153 13 -222 6 -69 14 -168 18 -220 l6 -95 9 105 c11 135 12 201 3 450 -4 113 -13 218 -19 234 -10 26 -9 31 11 47 19 16 20 20 8 25 -9 3 -25 0 -37 -6 -15 -8 -25 -9 -32 -2 -15 15 -2 42 20 42 27 0 48 26 27 33 -12 5 -13 12 -4 34 6 16 8 49 4 77 -9 74 -31 105 -52 74z"/>
 <path d="M4438 5277 c-8 -7 -19 -24 -25 -38 -11 -26 -10 -27 35 -40 25 -7 62 -27 82 -45 19 -17 45 -34 58 -38 21 -7 22 -5 22 59 0 52 -3 66 -13 62 -8 -3 -34 4 -58 15 -78 35 -86 37 -101 25z"/>
 <path d="M4219 5240 c-5 -4 2 -12 17 -18 19 -9 24 -17 19 -30 -5 -9 -10 -30 -13 -45 -5 -34 17 -175 29 -183 5 -3 9 -13 9 -22 0 -9 5 -35 12 -57 l12 -40 9 55 c13 70 8 281 -6 298 -8 10 -5 14 11 19 12 3 22 11 22 18 0 10 -16 13 -55 12 -31 -1 -60 -4 -66 -7z"/>
 <path d="M694 5172 c4 -3 -4 -12 -16 -20 -20 -12 -14 -13 56 -8 95 6 128 26 45 27 -29 0 -62 2 -72 4 -11 2 -16 1 -13 -3z"/>
 <path d="M2401 4886 c-14 -16 -4 -46 15 -46 7 0 17 -7 22 -17 13 -23 42 -9 42 21 0 14 -9 31 -22 40 -28 20 -42 20 -57 2z"/>
 <path d="M1182 4858 c-24 -24 -13 -38 31 -38 24 0 48 -5 55 -12 9 -9 9 -4 0 20 -15 39 -61 55 -86 30z"/>
 <path d="M3421 4831 c-25 -34 -27 -64 -6 -81 13 -11 27 -8 82 18 60 28 64 31 41 37 -14 4 -35 5 -46 3 -28 -4 -30 15 -3 27 31 14 26 25 -13 25 -27 0 -39 -7 -55 -29z"/>
 <path d="M2624 4818 c-3 -5 -10 -6 -15 -3 -8 6 -61 -46 -54 -53 2 -2 17 4 34 12 35 18 84 21 112 5 16 -8 19 -17 14 -38 -5 -23 -2 -29 15 -34 30 -8 64 24 56 51 -14 42 -144 90 -162 60z"/>
 <path d="M2885 4799 c-10 -30 18 -58 43 -43 9 6 17 22 17 35 0 34 -50 41 -60 8z"/>
 <path d="M1660 4782 l-23 -19 32 -22 c17 -13 38 -20 46 -17 18 7 20 47 3 64 -17 17 -32 15 -58 -6z"/>
 <path d="M3180 4790 c0 -5 6 -10 13 -10 6 0 26 -7 42 -15 l30 -15 -28 25 c-29 26 -57 33 -57 15z"/>
 <path d="M1893 4743 c-23 -8 -1 -33 29 -33 17 0 27 4 23 10 -9 15 -38 28 -52 23z"/>
 <path d="M3770 4675 c0 -56 -16 -84 -60 -101 -22 -9 -40 -20 -40 -24 0 -17 40 -17 78 0 35 16 42 25 54 67 17 59 13 88 -13 90 -15 1 -19 -5 -19 -32z"/>
 <path d="M2147 4693 c-19 -19 8 -62 40 -63 21 0 36 39 22 56 -12 14 -51 19 -62 7z"/>
 <path d="M1970 4636 c0 -14 5 -26 10 -26 6 0 10 9 10 19 0 11 -4 23 -10 26 -6 4 -10 -5 -10 -19z"/>
 <path d="M2322 4624 c-9 -10 -12 -38 -10 -87 3 -65 5 -72 25 -75 31 -5 63 31 63 71 0 44 -9 51 -30 24 l-18 -22 -6 25 c-3 14 -7 37 -8 51 -3 23 -5 25 -16 13z"/>
 <path d="M2496 4624 c-10 -26 -7 -51 9 -64 13 -11 15 -7 15 28 0 43 -14 63 -24 36z"/>
 <path d="M3050 4541 c0 -75 3 -90 17 -96 24 -9 85 58 81 88 -2 17 -9 21 -30 19 -23 -2 -27 2 -33 38 -4 25 -12 40 -21 40 -11 0 -14 -19 -14 -89z"/>
 <path d="M1370 4582 c0 -42 41 -165 80 -240 28 -55 29 -56 30 -24 0 18 -16 73 -35 122 -19 49 -35 95 -35 102 0 7 -9 27 -20 43 l-20 30 0 -33z"/>
 <path d="M1846 4592 c-4 -7 -11 -10 -15 -8 -4 3 -8 -1 -8 -8 0 -7 -6 -34 -13 -60 -15 -54 -10 -64 22 -42 26 19 65 21 70 4 6 -18 38 -1 38 21 0 11 -5 32 -10 46 -8 22 -15 26 -36 22 -19 -3 -27 1 -33 16 -5 14 -10 17 -15 9z"/>
 <path d="M4307 4472 c5 -214 14 -318 25 -299 14 26 11 178 -6 306 -8 62 -17 115 -19 117 -1 2 -1 -54 0 -124z"/>
 <path d="M1596 4543 c-4 -5 -20 -8 -34 -8 -21 0 -28 -5 -30 -25 -4 -32 18 -63 40 -55 23 9 55 72 42 85 -6 6 -14 7 -18 3z"/>
 <path d="M3301 4498 c-1 -62 19 -98 44 -78 7 6 23 9 35 8 16 -2 24 3 26 16 1 10 13 28 26 40 l23 21 -30 3 c-17 2 -35 8 -42 14 -15 12 -33 2 -33 -18 0 -25 -20 -15 -34 19 l-14 32 -1 -57z"/>
 <path d="M2861 4506 c-15 -17 -11 -58 5 -63 18 -6 35 53 20 67 -10 7 -17 6 -25 -4z"/>
 <path d="M2620 4460 c0 -11 -4 -20 -9 -20 -6 0 -9 -9 -8 -20 2 -32 55 -28 63 5 7 27 -10 55 -32 55 -8 0 -14 -9 -14 -20z"/>
 <path d="M3469 4473 c-6 -78 -3 -95 22 -110 56 -34 82 19 29 59 -16 12 -30 27 -30 34 0 14 -20 30 -21 17z"/>
 <path d="M876 4358 c-10 -18 -16 -46 -14 -63 2 -24 8 -30 28 -30 20 0 27 7 37 38 14 41 3 87 -20 87 -8 0 -22 -15 -31 -32z"/>
 <path d="M1525 4153 c11 -28 13 -47 7 -64 -11 -30 16 -84 43 -84 33 0 41 29 20 76 -11 23 -24 47 -30 53 -5 7 -15 20 -21 31 -21 38 -35 29 -19 -12z"/>
 <path d="M1041 3596 c-14 -17 -9 -112 7 -143 17 -31 47 -34 71 -9 21 22 29 52 12 41 -15 -8 -44 61 -38 91 3 20 1 24 -11 19 -8 -3 -18 -1 -22 5 -5 7 -11 6 -19 -4z"/>
 <path d="M2490 3581 c0 -6 17 -13 38 -16 20 -4 46 -9 57 -11 28 -5 -34 22 -67 30 -16 4 -28 2 -28 -3z"/>
 <path d="M2260 3550 c0 -21 55 -32 125 -25 90 8 112 14 94 26 -20 13 -219 11 -219 -1z"/>
 <path d="M2692 3538 c3 -7 13 -15 24 -17 16 -3 17 -1 5 13 -16 19 -34 21 -29 4z"/>
 <path d="M1400 3532 c1 -4 7 -18 15 -32 9 -16 15 -56 15 -110 l1 -85 19 24 c23 26 27 107 10 158 -10 26 -61 65 -60 45z"/>
 <path d="M3670 3453 c0 -4 14 -16 31 -25 16 -10 35 -31 40 -48 13 -36 25 -39 31 -6 6 32 1 40 -47 61 -22 10 -43 20 -47 22 -5 2 -8 1 -8 -4z"/>
 <path d="M3012 3320 c-23 -19 -23 -20 -8 -65 9 -25 16 -51 16 -57 0 -7 9 -31 21 -55 39 -81 73 -36 45 60 -9 30 -16 69 -16 86 0 41 -27 56 -58 31z"/>
 <path d="M3505 3298 c-26 -14 -45 -38 -45 -57 0 -9 11 -3 28 17 28 34 46 40 97 28 l30 -7 -25 15 c-30 18 -57 20 -85 4z"/>
 <path d="M1415 3265 c-11 -44 -14 -46 -39 -29 -13 8 -35 17 -49 20 -23 4 -27 0 -33 -33 l-7 -36 -16 33 c-12 26 -23 34 -44 35 -16 0 -31 -3 -33 -7 -3 -4 -14 -8 -25 -8 -14 0 -19 -7 -19 -25 0 -14 -9 -30 -20 -37 -28 -18 -25 -28 10 -28 21 0 30 -5 30 -16 0 -11 5 -14 18 -9 9 4 46 9 82 11 36 3 69 9 75 15 15 15 25 10 36 -17 9 -26 10 -26 29 -9 11 10 28 33 39 51 17 28 18 34 5 45 -8 6 -18 26 -23 43 l-8 31 -8 -30z"/>
 <path d="M3705 3278 c-39 -23 -47 -37 -41 -73 9 -45 37 -47 75 -6 21 23 27 37 23 60 -5 33 -22 39 -57 19z"/>
 <path d="M1050 3246 c0 -14 5 -26 10 -26 6 0 10 9 10 19 0 11 -4 23 -10 26 -6 4 -10 -5 -10 -19z"/>
 <path d="M3596 3189 c6 -18 -20 -49 -41 -49 -17 0 -38 -36 -30 -50 3 -5 -10 -26 -30 -47 -28 -29 -35 -43 -33 -69 1 -19 8 -36 16 -39 7 -3 10 -9 7 -15 -3 -5 -1 -10 4 -10 6 0 11 -13 11 -30 0 -20 5 -30 15 -30 10 0 15 10 15 34 0 18 6 39 14 45 8 7 12 21 9 32 -4 14 2 25 16 35 18 13 20 22 15 50 -5 29 -3 35 17 43 13 4 31 6 39 3 12 -5 12 -1 -3 21 -9 14 -17 32 -17 40 0 7 -7 22 -15 33 -11 13 -13 14 -9 3z"/>
 <path d="M1071 3116 c-8 -9 -11 -19 -7 -23 9 -9 29 13 24 27 -2 8 -8 7 -17 -4z"/>
 <path d="M1350 3060 c-9 -16 -8 -20 5 -20 8 0 15 2 15 4 0 2 3 11 6 20 9 23 -13 20 -26 -4z"/>
 <path d="M1078 3032 l-27 -18 44 -10 c24 -5 42 -7 39 -3 -2 4 2 10 8 13 9 3 7 9 -6 20 -25 20 -25 20 -58 -2z"/>
 <path d="M1243 3026 c-18 -8 -23 -19 -23 -48 0 -46 20 -50 65 -14 28 22 29 25 16 50 -15 28 -24 30 -58 12z"/>
 <path d="M3291 2978 c-6 -16 -16 -40 -21 -54 -8 -19 -15 -24 -28 -19 -87 33 -202 34 -332 3 l-55 -13 80 -3 c43 -2 108 2 143 7 50 8 81 6 142 -6 102 -20 114 -16 105 40 -11 64 -21 78 -34 45z"/>
 <path d="M1394 2968 c-7 -24 22 -55 60 -62 11 -2 48 -9 82 -15 33 -6 68 -11 77 -11 17 0 17 1 0 18 -27 27 -69 42 -117 42 -36 0 -47 5 -60 25 -20 31 -33 32 -42 3z"/>
 <path d="M1156 2945 c-12 -27 -21 -35 -40 -35 -14 0 -28 -4 -31 -10 -9 -15 42 -12 74 5 31 16 43 37 35 60 -10 24 -23 17 -38 -20z"/>
 <path d="M2268 2878 c5 -21 4 -22 -12 -9 -21 18 -30 9 -20 -21 4 -13 8 -27 9 -32 0 -12 52 -19 59 -8 8 13 16 65 9 58 -3 -3 -12 3 -20 14 -19 27 -33 25 -25 -2z"/>
 <path d="M2545 2870 c-4 -6 7 -10 25 -10 18 0 29 4 25 10 -3 6 -15 10 -25 10 -10 0 -22 -4 -25 -10z"/>
 <path d="M2418 2844 c-27 -13 -48 -29 -48 -34 0 -16 19 -11 58 15 20 14 42 25 49 25 6 0 15 5 18 10 11 18 -29 10 -77 -16z"/>
 <path d="M3381 2843 c-2 -19 20 -61 34 -67 16 -6 55 21 55 39 0 10 -10 12 -39 8 -32 -4 -40 -2 -44 13 -3 11 -5 14 -6 7z"/>
 <path d="M850 2794 c0 -11 -6 -14 -21 -9 -16 5 -20 3 -17 -10 5 -30 33 -41 52 -22 13 13 15 21 6 37 -13 24 -20 26 -20 4z"/>
 <path d="M3480 2585 c12 -51 22 -57 18 -11 -2 22 -8 41 -15 43 -8 3 -9 -6 -3 -32z"/>
 <path d="M1770 2571 c0 -25 -5 -30 -27 -33 -25 -3 -26 -4 -10 -19 9 -9 13 -20 9 -24 -4 -4 9 -1 28 7 29 12 36 20 38 48 2 19 -2 36 -10 41 -22 14 -28 10 -28 -20z"/>
 <path d="M3190 2549 c0 -12 24 -22 45 -17 12 2 7 7 -14 15 -18 6 -31 7 -31 2z"/>
 <path d="M3551 2503 c-27 -43 -31 -45 -32 -23 -1 21 -2 22 -6 5 -3 -11 -9 -25 -14 -31 -4 -5 -8 -30 -7 -55 0 -24 -2 -82 -6 -129 -3 -47 -3 -78 0 -70 4 8 13 22 20 30 8 10 14 50 16 110 l3 95 19 -37 19 -37 31 17 c17 9 32 17 33 17 8 1 -26 150 -35 153 -6 2 -25 -18 -41 -45z"/>
 <path d="M2007 2443 c-11 -10 -8 -103 3 -103 6 0 10 25 10 55 0 56 -1 60 -13 48z"/>
 <path d="M887 2074 c3 -33 12 -66 21 -74 13 -13 14 -13 7 5 -5 11 -10 40 -13 65 -2 25 -8 49 -12 54 -5 5 -6 -18 -3 -50z"/>
 <path d="M2340 2021 c6 -12 20 -21 30 -21 28 0 25 7 -11 25 -30 16 -30 16 -19 -4z"/>
 <path d="M2260 1989 c0 -47 39 -78 71 -58 11 7 5 18 -28 51 l-43 43 0 -36z"/>
 <path d="M1190 1980 c0 -6 37 -10 97 -10 53 0 94 2 92 4 -11 10 -189 16 -189 6z"/>
 <path d="M2610 1981 c0 -10 76 -21 144 -20 l51 1 -30 13 c-33 15 -165 20 -165 6z"/>
 <path d="M3025 1940 c3 -5 19 -10 35 -10 16 0 32 5 35 10 4 6 -10 10 -35 10 -25 0 -39 -4 -35 -10z"/>
 <path d="M3315 1928 c-16 -5 -39 -13 -50 -18 -11 -5 -33 -11 -50 -13 -16 -3 -57 -10 -90 -17 -40 -8 -88 -10 -145 -5 -146 14 -205 12 -205 -5 0 -27 280 -45 383 -26 38 8 42 7 42 -11 0 -11 -7 -42 -15 -69 -18 -61 -18 -102 0 -134 16 -28 19 -87 7 -140 -5 -22 -4 -43 3 -57 10 -20 12 -20 22 -5 10 14 12 8 12 -30 1 -27 5 -48 9 -48 23 0 37 91 38 245 0 173 8 209 48 225 20 7 25 17 28 57 3 26 2 51 -1 54 -3 4 -19 2 -36 -3z"/>
 <path d="M1113 1922 c-14 -9 -5 -26 20 -35 13 -5 17 -13 12 -28 -4 -12 -8 -56 -10 -98 -1 -42 -6 -87 -10 -100 -7 -19 -5 -22 11 -19 16 3 19 13 21 76 2 79 16 133 39 153 13 11 19 9 34 -11 l19 -25 16 39 c19 46 14 54 -26 39 -23 -9 -35 -8 -57 3 -30 16 -51 17 -69 6z"/>
 <path d="M3028 1789 c-21 -12 -25 -64 -5 -56 7 3 21 -1 31 -9 17 -12 21 -11 32 4 37 48 -6 92 -58 61z"/>
 <path d="M1227 1774 c-4 -4 -7 -22 -7 -40 0 -69 22 -81 72 -39 24 21 37 24 71 20 l42 -5 -29 14 c-22 10 -38 11 -57 4 -33 -11 -66 3 -77 33 -4 11 -11 17 -15 13z"/>
 <path d="M1474 1719 c-3 -6 -1 -16 5 -22 8 -8 7 -15 -3 -26 -11 -13 -12 -18 -1 -28 9 -9 20 -7 44 8 41 25 50 48 26 65 -23 17 -61 18 -71 3z"/>
 <path d="M2470 1680 c0 -5 11 -10 24 -10 14 0 28 5 31 10 4 6 -7 10 -24 10 -17 0 -31 -4 -31 -10z"/>
 <path d="M874 1645 c-8 -21 4 -35 32 -35 26 0 32 18 12 38 -16 16 -37 15 -44 -3z"/>
 <path d="M957 1604 c-9 -10 4 -34 18 -34 20 0 30 21 14 31 -17 10 -24 11 -32 3z"/>
 <path d="M2445 1590 c-17 -7 -14 -9 13 -9 20 -1 31 3 27 9 -7 12 -13 12 -40 0z"/>
 <path d="M1067 1573 c-19 -18 -5 -33 32 -33 37 0 68 19 54 33 -8 9 -78 9 -86 0z"/>
 <path d="M1220 1546 c-6 -8 -10 -25 -8 -37 4 -26 28 -38 28 -14 0 9 4 14 8 11 5 -3 6 8 4 25 -5 32 -13 36 -32 15z"/>
 <path d="M2590 1553 c-90 -13 -94 -15 -79 -24 9 -4 48 -12 87 -17 68 -8 82 -4 82 23 0 3 -62 26 -64 24 -1 -1 -12 -3 -26 -6z"/>
 <path d="M1818 953 c-49 -57 -24 -72 135 -80 104 -6 108 -5 114 15 3 12 14 24 25 28 39 12 -4 31 -98 43 -125 15 -158 14 -176 -6z"/>
 <path d="M2665 901 c-13 -6 15 -10 85 -14 58 -4 127 -9 154 -13 33 -4 46 -3 42 4 -11 17 -248 37 -281 23z"/>
 <path d="M2247 867 c-7 -18 10 -23 106 -33 56 -6 67 -4 67 9 0 20 -18 26 -99 33 -56 5 -69 4 -74 -9z"/>
 <path d="M2583 836 c-10 -11 -9 -15 4 -20 12 -5 14 -9 5 -18 -7 -7 -12 -18 -12 -26 0 -11 12 -12 55 -7 45 6 56 4 61 -9 3 -9 17 -16 30 -16 26 0 104 46 104 61 0 12 -53 11 -87 -2 -25 -9 -30 -7 -53 20 -19 24 -33 31 -60 31 -19 -1 -40 -7 -47 -14z"/>
 <path d="M1491 734 c-27 -34 -26 -57 2 -88 24 -27 67 -44 67 -27 0 6 7 11 15 11 19 0 19 11 1 47 -8 15 -19 40 -25 56 -13 34 -34 34 -60 1z"/>
 <path d="M2411 726 c-13 -7 -20 -16 -15 -19 10 -6 74 18 74 28 0 9 -35 5 -59 -9z"/>
 <path d="M2040 707 c0 -32 108 -64 125 -37 6 10 -51 37 -97 47 -21 4 -28 2 -28 -10z"/>
 <path d="M2301 703 c-7 -8 -20 -12 -29 -8 -9 3 -13 3 -9 -1 4 -4 2 -13 -4 -21 -17 -20 28 -16 69 6 33 17 33 17 10 28 -18 8 -26 7 -37 -4z"/>
 <path d="M1964 654 c3 -8 1 -24 -4 -35 -9 -16 -7 -19 13 -19 22 0 47 16 47 31 0 13 -31 39 -47 39 -10 0 -13 -6 -9 -16z"/>
 <path d="M4133 628 c-13 -17 -30 -89 -38 -157 -3 -30 -15 -81 -27 -113 -13 -39 -18 -71 -14 -93 5 -27 3 -36 -11 -43 -14 -7 -226 -25 -293 -24 -23 0 -70 -19 -70 -29 0 -5 35 -9 77 -9 70 0 75 -1 57 -15 -18 -14 -18 -14 9 -15 15 0 27 -3 27 -7 0 -12 214 -6 300 7 41 6 113 15 159 18 87 7 111 21 98 56 -6 14 -26 16 -150 16 -79 0 -147 3 -150 7 -4 3 -3 11 1 17 17 22 43 105 48 152 3 27 15 83 26 124 15 54 17 75 9 78 -7 2 -20 13 -30 23 -14 16 -20 17 -28 7z"/>
 <path d="M1632 591 c9 -15 20 -18 47 -14 61 8 69 16 26 24 -22 4 -50 8 -63 8 -19 1 -21 -1 -10 -18z"/>
 <path d="M2136 581 c-11 -16 27 -22 43 -6 14 13 13 15 -11 15 -15 0 -29 -4 -32 -9z"/>
 <path d="M220 441 c0 -26 5 -52 11 -58 14 -14 4 -44 -13 -41 -9 2 -12 -9 -11 -35 3 -45 17 -73 43 -87 16 -9 22 -6 35 19 20 40 19 66 -6 100 -12 16 -19 37 -17 47 3 16 11 19 58 16 30 -2 80 -9 110 -16 48 -11 59 -11 85 4 67 37 21 67 -123 80 -53 6 -114 12 -134 14 l-38 4 0 -47z"/>
 <path d="M702 403 c-28 -10 3 -23 56 -23 32 0 52 4 47 9 -12 10 -84 20 -103 14z"/>
 <path d="M1020 356 c0 -8 61 -12 66 -4 3 4 -11 8 -30 8 -20 0 -36 -2 -36 -4z"/>
 <path d="M1892 194 c8 -7 138 -34 163 -33 42 1 -72 38 -119 38 -27 1 -47 -2 -44 -5z"/>
 <path d="M2170 141 c0 -15 76 -21 182 -15 163 10 149 23 -24 24 -87 0 -158 -4 -158 -9z"/>
 </g>
<g id="layer103" fill="#989898" stroke="none">
 <path d="M252 5265 c-7 -14 -12 -57 -12 -95 0 -76 11 -88 46 -49 23 25 25 105 4 144 -17 31 -24 31 -38 0z"/>
 <path d="M4527 5210 c-14 -37 -14 -39 12 -63 14 -14 36 -28 49 -32 21 -6 22 -4 22 60 0 49 -3 66 -12 62 -7 -2 -23 -1 -34 4 -18 6 -24 2 -37 -31z"/>
 <path d="M4256 5188 c-21 -30 -20 -81 2 -107 25 -30 42 -13 51 51 6 48 5 57 -11 67 -24 15 -24 14 -42 -11z"/>
 <path d="M57 5013 c-15 -14 -6 -24 20 -21 34 4 43 28 11 28 -14 0 -28 -3 -31 -7z"/>
 <path d="M255 4968 c4 -13 16 -32 27 -43 19 -18 20 -18 14 -2 -3 11 -9 30 -12 43 -3 13 -13 24 -21 24 -10 0 -12 -6 -8 -22z"/>
 <path d="M2320 4501 c0 -25 25 -38 44 -22 7 6 16 8 20 4 4 -4 4 0 0 10 -3 9 -12 17 -19 17 -7 0 -20 3 -29 6 -12 4 -16 0 -16 -15z"/>
 <path d="M3063 4492 c-8 -18 12 -36 31 -29 24 10 20 43 -5 43 -12 0 -24 -6 -26 -14z"/>
 <path d="M3356 4465 c-3 -9 0 -15 9 -15 8 0 15 7 15 15 0 8 -4 15 -9 15 -5 0 -11 -7 -15 -15z"/>
 <path d="M880 4301 c0 -12 5 -21 10 -21 6 0 10 6 10 14 0 8 -4 18 -10 21 -5 3 -10 -3 -10 -14z"/>
 <path d="M3025 3269 c-22 -34 19 -169 51 -169 33 0 23 104 -14 156 -19 26 -28 29 -37 13z"/>
 <path d="M3276 1884 c-19 -19 -20 -72 -2 -97 13 -17 14 -16 19 3 3 11 17 24 31 30 18 6 26 17 26 33 0 44 -43 62 -74 31z"/>
 <path d="M3200 1845 c0 -15 6 -25 14 -25 19 0 28 14 20 34 -10 25 -34 19 -34 -9z"/>
 <path d="M3176 1738 c-10 -38 -6 -82 9 -108 8 -14 14 -35 15 -47 0 -30 12 -35 50 -22 l31 11 -6 77 c-7 76 -17 103 -29 82 -11 -18 -26 -13 -26 9 0 28 -36 26 -44 -2z"/>
 <path d="M1805 940 c-11 -18 6 -50 28 -54 91 -19 108 -15 134 31 10 18 9 22 -10 27 -36 10 -145 7 -152 -4z"/>
 <path d="M1490 735 c-17 -21 -4 -71 14 -56 7 6 21 9 30 5 13 -5 16 0 16 24 0 40 -36 56 -60 27z"/>
 <path d="M253 452 c-20 -12 0 -27 38 -29 32 -1 36 1 32 18 -6 20 -46 26 -70 11z"/>
 <path d="M4110 362 c-26 -8 -40 -34 -40 -73 0 -64 27 -61 49 7 15 48 12 73 -9 66z"/>
 <path d="M238 313 c-38 -10 -30 -71 12 -93 16 -9 22 -6 34 18 12 23 12 33 3 52 -13 25 -23 30 -49 23z"/>
 <path d="M4333 208 l-23 -11 26 -24 c29 -26 51 -27 67 -2 25 39 -19 62 -70 37z"/>
 <path d="M4103 195 c22 -13 37 -14 70 -7 l42 10 -45 1 c-25 1 -56 4 -70 7 -24 5 -24 5 3 -11z"/>
 <path d="M4233 193 c9 -2 15 -9 12 -14 -4 -5 1 -9 9 -9 9 0 16 4 16 9 0 5 8 12 18 14 9 3 -3 5 -28 5 -25 0 -37 -2 -27 -5z"/>
 <path d="M4120 160 c-11 -7 -5 -10 23 -10 20 0 37 5 37 10 0 13 -40 13 -60 0z"/>
 </g>

</svg>